<?xml version="1.0" encoding="utf-8"?>
<!-- Generator: Adobe Illustrator 21.1.0, SVG Export Plug-In . SVG Version: 6.00 Build 0)  -->
<svg version="1.1" id="Слой_1" xmlns="http://www.w3.org/2000/svg" xmlns:xlink="http://www.w3.org/1999/xlink" x="0px" y="0px"
	 viewBox="0 0 30.9 20" style="enable-background:new 0 0 30.9 20;" xml:space="preserve">
<style type="text/css">
	.st0{fill:#019540;}
</style>
<title>icon-app</title>
<g id="Слой_2">
	<g id="Слой_1-2">
		<path class="st0" d="M25.9,8.1C26,7.7,26,7.4,26,7c0-3.9-3.1-7-6.9-7.1c-3,0-5.8,1.9-6.7,4.8c-1.5-1.2-3.8-0.9-5,0.6
			C6.9,6,6.6,6.8,6.6,7.6c0,0.2,0,0.3,0,0.5H6.6C3.3,7.7,0.4,10.1,0,13.4s2.1,6.2,5.4,6.6c0.4,0,0.8,0,1.2,0h18.7
			c3.3-0.2,5.8-3.1,5.6-6.4C30.7,10.8,28.7,8.5,25.9,8.1z"/>
	</g>
</g>
</svg>
